<svg width="28" height="28" viewBox="0 0 28 28" fill="none" xmlns="http://www.w3.org/2000/svg">
<mask id="mask0_1_1010" style="mask-type:luminance" maskUnits="userSpaceOnUse" x="0" y="0" width="28" height="28">
<path d="M0 0H27.4242V28H0V0Z" fill="white"/>
</mask>
<g mask="url(#mask0_1_1010)">
<path d="M25.2559 13.2346C25.2559 12.2238 25.1026 11.2337 24.8126 10.2809C25.8938 7.85333 27.3148 5.55418 27.4307 3.719C27.4307 1.74711 25.8193 0.139768 23.8391 0.139768C21.5731 0.114912 19.8497 2.28979 20.3179 4.48538C13.0724 0.0113464 3.65208 6.05544 4.74988 14.4898C-1.82032 17.5512 0.226132 27.3485 7.57929 27.4562C10.3507 27.4562 12.7451 25.795 13.8015 23.4213C19.8415 24.1463 25.2932 19.2911 25.2559 13.2346ZM16.9126 22.7046C18.3418 21.5033 19.4438 19.0094 19.8456 15.8279C21.1671 15.6332 23.4745 15.1858 24.6055 14.3241C24.1249 18.4999 20.9807 21.8761 16.9126 22.7046ZM19.3071 15.3101C17.0328 15.6042 14.3069 15.658 11.9498 15.4509C11.5231 15.1029 11.0508 14.7922 10.5496 14.5478C10.475 13.4459 10.504 12.2652 10.62 11.1591C13.3127 10.8112 16.6185 10.8112 19.3153 11.1591C19.4521 12.5345 19.4521 13.9389 19.3071 15.3101ZM19.9119 15.2272C20.0403 13.9057 20.0403 12.5676 19.9119 11.242C26.2335 12.2984 26.2335 14.1708 19.9119 15.2272ZM24.0711 11.8095C24.1746 11.6024 24.2326 11.4781 24.4191 11.0887C24.5019 11.4367 24.5599 11.7888 24.5972 12.1451C24.4481 12.025 24.2699 11.9131 24.0711 11.8095ZM23.8391 0.72802C25.4961 0.72802 26.8466 2.07437 26.8466 3.72314C26.7141 5.44233 25.1233 8.1226 23.8515 10.9313C22.9194 8.89313 22.0785 7.11595 21.2872 5.50032C21.0138 4.96178 20.8357 4.32796 20.844 3.72314C20.8398 2.07023 22.1862 0.72802 23.8391 0.72802ZM20.5706 5.35533C21.4737 7.2858 22.4099 9.15412 23.4745 11.5361C22.3022 11.0597 20.8067 10.7822 19.8415 10.6455C19.4438 7.46807 18.3418 4.97835 16.9168 3.77699C18.2258 4.03798 19.4686 4.56823 20.5706 5.35533ZM14.9573 3.56986C16.9168 3.56986 18.6898 6.48627 19.2366 10.5585C16.5729 10.2271 13.3458 10.2271 10.6821 10.5585C11.2289 6.48627 13.002 3.56986 14.9573 3.56986ZM13.0144 3.76456C11.5852 4.96593 10.4833 7.46393 10.0773 10.6372C8.7558 10.8319 6.44835 11.2793 5.32156 12.1451C5.79382 7.96933 8.94221 4.59723 13.0144 3.76456ZM10.0152 11.242C9.91573 12.2445 9.89087 13.2926 9.94887 14.2951C8.68951 13.8229 7.28102 13.7566 5.98852 14.059C3.99178 12.9032 6.46078 11.822 10.0152 11.242ZM13.1635 23.3882C10.1974 29.2334 1.43578 27.2284 1.34878 20.6623C1.34878 18.4129 2.61643 16.3001 4.5966 15.2189C9.9323 12.3937 15.7568 17.9489 13.1635 23.3882ZM13.7269 17.7459C13.4452 17.1452 13.0683 16.5818 12.6167 16.0889C14.7543 16.2297 17.1902 16.1717 19.2449 15.9149C18.6028 20.2481 16.7179 23.7072 14.0832 22.7088C14.5886 21.0766 14.4519 19.2828 13.7269 17.7459ZM23.5491 5.2352C24.0877 5.33462 24.6469 5.13577 25.0156 4.71323C25.8814 3.75628 25.1316 2.16137 23.8391 2.18208C21.9708 2.21937 21.7264 4.8375 23.5491 5.2352ZM23.8391 2.76619C25.2393 2.83662 25.0239 4.84165 23.6568 4.65523C22.5383 4.41496 22.6833 2.7869 23.8391 2.76619ZM10.2927 17.1411C10.2844 17.1204 9.2612 16.5363 9.2322 16.528L7.72428 15.6622C7.63314 15.6083 7.51715 15.6083 7.42601 15.6622L3.3041 18.0359C3.21296 18.0898 3.15911 18.185 3.15911 18.2845V23.0361C3.15911 23.1438 3.21296 23.239 3.3041 23.2888L7.4343 25.6625C7.47572 25.6873 7.52958 25.6998 7.57929 25.6998C7.62486 25.6998 7.67871 25.6873 7.72428 25.6625L11.8503 23.2888C11.9415 23.2349 11.9953 23.1396 11.9953 23.0361V18.2845C11.9953 18.1809 11.9415 18.0815 11.8503 18.0359L10.2927 17.1411ZM9.5139 17.3648L5.9761 19.3988L5.62811 19.2L9.13277 17.1452L9.5139 17.3648ZM5.68611 19.9125V21.3003L5.34227 21.0932V19.7178L5.68611 19.9125ZM7.57929 16.2546L8.54452 16.8138L5.03986 18.8686L4.04149 18.2969L7.57929 16.2546ZM7.28102 24.9044L3.74736 22.8703V18.8023L4.75402 19.3781V21.2589C4.75402 21.3583 4.80787 21.4577 4.89487 21.5116C4.99429 21.553 5.88496 22.1537 5.98024 22.1164C6.13766 22.1205 6.27851 21.9797 6.27851 21.8223V20.2522L7.28931 20.8322V24.9044H7.28102ZM7.57929 20.3268L6.56435 19.7427L10.098 17.7086L11.1171 18.2927L7.57929 20.3268ZM11.4112 22.8703L7.87342 24.9044V20.8363C8.70609 20.3599 10.5993 19.2663 11.4112 18.8023V22.8703ZM3.1094 9.50624C3.31653 8.86413 3.5858 8.22617 3.8965 7.61721C3.97106 7.47636 4.1492 7.41422 4.29419 7.49293C4.43918 7.56749 4.49718 7.74563 4.42261 7.89062C4.1202 8.47059 3.8675 9.07955 3.66865 9.6968C3.62723 9.82937 3.49881 9.90808 3.35796 9.89565C3.17154 9.87908 3.0514 9.68023 3.1094 9.50624ZM2.52115 13.5412C2.50872 12.8618 2.546 12.1741 2.64542 11.4947C2.66614 11.3414 2.83184 11.2254 2.97683 11.2503C3.33724 11.3083 3.20054 11.7143 3.17568 11.9628C3.11768 12.4765 3.09697 13.0068 3.10526 13.5246C3.10526 13.6861 2.97683 13.8187 2.81527 13.8229C2.66614 13.8353 2.52529 13.7069 2.52115 13.5412ZM15.4006 1.17957C15.4089 1.018 15.5456 0.889583 15.7071 0.906153C16.3824 0.943437 17.0783 1.047 17.7453 1.19614C17.8986 1.23342 17.998 1.3867 17.9649 1.54412C17.9276 1.70568 17.766 1.80096 17.6086 1.76782C16.9748 1.62283 16.3202 1.52755 15.674 1.49026C15.5166 1.48612 15.3881 1.34113 15.4006 1.17957ZM11.4319 1.69325C11.3905 1.53169 11.4816 1.37841 11.6432 1.33699C12.2977 1.15471 12.9771 1.018 13.6565 0.94758C13.8181 0.935152 13.9631 1.047 13.9796 1.21271C13.9962 1.37427 13.8802 1.51926 13.7187 1.53169C13.0683 1.60211 12.422 1.72639 11.7923 1.90453C11.6473 1.94181 11.4816 1.85481 11.4319 1.69325ZM5.03986 6.28742C4.9073 6.19214 4.88658 6.00572 4.98187 5.8773C5.39199 5.33048 5.84353 4.81265 6.3365 4.34039C6.45664 4.23268 6.63892 4.23268 6.75491 4.34868C6.86262 4.46881 6.86262 4.65109 6.74662 4.76708C6.27851 5.21863 5.84353 5.7116 5.45412 6.22943C5.3547 6.36613 5.16828 6.38685 5.03986 6.28742ZM7.8527 3.46215C7.76157 3.32545 7.79471 3.14731 7.93141 3.05618C8.49895 2.67505 9.09963 2.33122 9.71688 2.04538C9.87016 1.97909 10.04 2.04123 10.1104 2.18622C10.1809 2.33122 10.1146 2.50935 9.96544 2.57563C9.37719 2.84904 8.80551 3.17631 8.26697 3.54086C8.12612 3.62786 7.94384 3.59472 7.8527 3.46215ZM26.0347 18.9224C25.7157 19.5438 25.347 20.1404 24.9327 20.6955C24.8333 20.8239 24.6469 20.8446 24.5185 20.7535C24.3942 20.6582 24.3611 20.4718 24.4563 20.3433C24.8499 19.8214 25.1937 19.2663 25.4961 18.6863C25.6536 18.3093 26.217 18.5537 26.0347 18.9224ZM27.2733 15.0408C27.178 15.716 27.0289 16.383 26.8135 17.0334C26.7679 17.166 26.6395 17.2488 26.5028 17.2322C26.3164 17.2198 26.1962 17.021 26.2542 16.8511C26.4531 16.2339 26.5981 15.5959 26.6934 14.9538C26.7472 14.5685 27.3355 14.6597 27.2733 15.0408ZM27.178 10.9603C27.3065 11.6273 27.3769 12.3149 27.3976 12.9943C27.4059 13.3755 26.8301 13.392 26.8094 13.0068C26.7969 12.3564 26.7224 11.7018 26.6022 11.068C26.5277 10.691 27.1076 10.5833 27.178 10.9603ZM23.5781 21.8098C23.6941 21.93 23.6858 22.1081 23.5657 22.2241C23.0727 22.6922 22.5342 23.1313 21.9708 23.5125C21.9045 23.558 21.8423 23.5705 21.7719 23.5663C21.5068 23.5415 21.4115 23.1769 21.6352 23.0319C22.1738 22.6674 22.6916 22.2531 23.1556 21.8057C23.2798 21.6938 23.4704 21.6938 23.5781 21.8098ZM20.3344 24.1339C20.4007 24.283 20.3386 24.457 20.1894 24.5274C19.5722 24.8132 18.9218 25.0452 18.259 25.2275C18.1098 25.2772 17.9441 25.1778 17.8944 25.0245C17.8571 24.863 17.9483 24.7014 18.1057 24.66C18.7312 24.4901 19.3526 24.2581 19.9409 23.9889C20.0942 23.9267 20.264 23.9889 20.3344 24.1339ZM16.5066 25.2855C16.5232 25.4471 16.4072 25.5921 16.2457 25.6086C15.5621 25.679 14.8745 25.6915 14.1909 25.6501C14.0294 25.6376 13.9051 25.5051 13.9175 25.3394C13.9258 25.1778 14.0666 25.0494 14.2282 25.0659C14.8786 25.1032 15.5331 25.0949 16.1835 25.0245C16.3451 25.0079 16.4859 25.1239 16.5066 25.2855Z" fill="#0071FF"/>
</g>
</svg>
