<svg width="18" height="18" viewBox="0 0 18 18" fill="none" xmlns="http://www.w3.org/2000/svg">
<path fill-rule="evenodd" clip-rule="evenodd" d="M0 8C0 5.79086 1.79086 4 4 4H14C16.2091 4 18 5.79086 18 8V14C18 16.2091 16.2091 18 14 18H4C1.79086 18 0 16.2091 0 14V8ZM4 6C2.89543 6 2 6.89543 2 8V14C2 15.1046 2.89543 16 4 16H14C15.1046 16 16 15.1046 16 14V8C16 6.89543 15.1046 6 14 6H4Z" fill="#69E0C7"/>
<path fill-rule="evenodd" clip-rule="evenodd" d="M9 8C8.44772 8 8 8.44772 8 9V10H7C6.44772 10 6 10.4477 6 11C6 11.5523 6.44772 12 7 12H8V13C8 13.5523 8.44772 14 9 14C9.55228 14 10 13.5523 10 13V12H11C11.5523 12 12 11.5523 12 11C12 10.4477 11.5523 10 11 10L10 10V9C10 8.44772 9.55228 8 9 8Z" fill="#69E0C7"/>
<path fill-rule="evenodd" clip-rule="evenodd" d="M7 2C6.44772 2 6 2.44772 6 3V4H4V3C4 1.34315 5.34315 0 7 0H11C12.6569 0 14 1.34315 14 3V4H12V3C12 2.44772 11.5523 2 11 2H7Z" fill="#69E0C7"/>
</svg>
