<svg width="24" height="24" viewBox="0 0 24 24" fill="none" xmlns="http://www.w3.org/2000/svg">
<mask id="mask0_1_941" style="mask-type:luminance" maskUnits="userSpaceOnUse" x="1" y="1" width="22" height="22">
<path d="M1 1H23V23H1V1Z" fill="white"/>
</mask>
<g mask="url(#mask0_1_941)">
<path d="M17.6385 23H6.50149C3.46629 23 1 20.549 1 17.5355V6.46448C1 3.45102 3.46927 1 6.50149 1H17.6385C20.6707 1 23.137 3.45102 23.137 6.46448V17.5355C23.137 20.549 20.6707 23 17.6385 23ZM6.50149 1.6986C3.85649 1.6986 1.70295 3.83585 1.70295 6.46448V17.5355C1.70295 20.1642 3.85649 22.3014 6.50149 22.3014H17.6385C20.2835 22.3014 22.4341 20.1642 22.4341 17.5355V6.46448C22.4341 3.83585 20.2835 1.6986 17.6385 1.6986H6.50149Z" fill="#0071FF"/>
</g>
<path d="M6.32568 20.7645C4.63085 20.7645 3.24878 19.394 3.24878 17.7097C3.24878 17.5143 3.40665 17.3604 3.60026 17.3604C3.79386 17.3604 3.95173 17.5143 3.95173 17.7097C3.95173 19.0092 5.01807 20.0659 6.32568 20.0659C6.51929 20.0659 6.67716 20.2228 6.67716 20.4152C6.67716 20.6077 6.51929 20.7645 6.32568 20.7645Z" fill="#0071FF"/>
<path d="M17.8139 20.7645C17.6203 20.7645 17.4624 20.6077 17.4624 20.4152C17.4624 20.2228 17.6203 20.0659 17.8139 20.0659C19.1215 20.0659 20.1849 19.0092 20.1849 17.7097C20.1849 17.5143 20.3427 17.3604 20.5363 17.3604C20.7329 17.3604 20.8878 17.5143 20.8878 17.7097C20.8878 19.394 19.5087 20.7645 17.8139 20.7645Z" fill="#0071FF"/>
<path d="M20.5363 6.63857C20.3427 6.63857 20.1849 6.48464 20.1849 6.29223C20.1849 4.98976 19.1215 3.93298 17.8139 3.93298C17.6203 3.93298 17.4624 3.77609 17.4624 3.58367C17.4624 3.39126 17.6203 3.23438 17.8139 3.23438C19.5087 3.23438 20.8878 4.60493 20.8878 6.29223C20.8878 6.48464 20.7329 6.63857 20.5363 6.63857Z" fill="#0071FF"/>
<path d="M3.60026 6.63857C3.40665 6.63857 3.24878 6.48464 3.24878 6.29223C3.24878 4.60493 4.63085 3.23438 6.32568 3.23438C6.51929 3.23438 6.67716 3.39126 6.67716 3.58367C6.67716 3.77609 6.51929 3.93298 6.32568 3.93298C5.01807 3.93298 3.95173 4.98976 3.95173 6.29223C3.95173 6.48464 3.79386 6.63857 3.60026 6.63857Z" fill="#0071FF"/>
<path d="M13.7888 14.1556C13.7322 14.1556 13.6756 14.1408 13.622 14.1112C13.4522 14.0194 13.3867 13.8092 13.4791 13.6405C14.9415 10.9379 14.2535 7.78824 11.7247 5.61547C11.5787 5.48818 11.5638 5.26913 11.6889 5.12112C11.817 4.97607 12.0374 4.96127 12.1863 5.0856C14.9713 7.48334 15.7219 10.9704 14.0986 13.9691C14.0331 14.0875 13.9139 14.1556 13.7888 14.1556Z" fill="#0071FF"/>
<path d="M6.77352 12.322C6.69012 12.322 6.60672 12.2924 6.53821 12.2302C6.39524 12.1 6.38332 11.8809 6.51438 11.7359C7.09223 11.1053 7.09521 10.2883 6.51736 9.65486C6.38928 9.51277 6.39822 9.29076 6.54417 9.16347C6.68714 9.03323 6.91054 9.04507 7.03862 9.18715C7.85178 10.0782 7.8488 11.3185 7.03564 12.2065C6.96415 12.2835 6.86883 12.322 6.77352 12.322Z" fill="#0071FF"/>
<path d="M8.52629 13.6013C8.43395 13.6013 8.34162 13.5628 8.27013 13.4918C8.13907 13.3497 8.14503 13.1307 8.28502 12.9975C8.97606 12.3492 9.35434 11.5351 9.35732 10.6974C9.35732 9.85967 8.97904 9.04267 8.29098 8.39735C8.14801 8.26414 8.14205 8.04213 8.27609 7.903C8.41012 7.76387 8.63352 7.75795 8.77351 7.8882C9.60157 8.66968 10.0603 9.66726 10.0573 10.6974C10.0573 11.7275 9.59859 12.7251 8.76756 13.5066C8.69905 13.5688 8.61267 13.6013 8.52629 13.6013Z" fill="#0071FF"/>
<path d="M10.3013 14.7735C10.203 14.7735 10.1077 14.732 10.0392 14.655C9.90817 14.513 9.92008 14.2909 10.066 14.1637C11.1443 13.2016 11.74 11.9702 11.74 10.6973C11.743 9.42442 11.1473 8.19299 10.069 7.23094C9.92604 7.10069 9.91412 6.88164 10.0422 6.73659C10.1733 6.5945 10.3937 6.58266 10.5396 6.70994C11.7668 7.80817 12.4459 9.22313 12.443 10.6973C12.443 12.1715 11.7638 13.5864 10.5337 14.6846C10.4681 14.7439 10.3847 14.7735 10.3013 14.7735Z" fill="#0071FF"/>
<path d="M12.8788 19.1217C12.3814 19.1217 11.9167 18.8168 11.738 18.3284L10.8682 15.9158C10.758 15.6139 10.7729 15.2883 10.9099 14.9982C11.0499 14.7081 11.2912 14.489 11.598 14.3795L16.0868 12.778C16.3906 12.6685 16.7182 12.6833 17.0101 12.8195C17.302 12.9586 17.5224 13.1984 17.6327 13.5033L18.5024 15.9129C18.7288 16.5345 18.4011 17.2242 17.7727 17.4492L13.2869 19.0506C13.1499 19.101 13.0128 19.1217 12.8788 19.1217ZM16.4948 13.4026C16.4382 13.4026 16.3787 13.4145 16.3221 13.4352L11.8333 15.0366C11.7082 15.081 11.604 15.1728 11.5474 15.2942C11.4908 15.4185 11.4818 15.5547 11.5295 15.682L12.3992 18.0915C12.4946 18.352 12.7865 18.4882 13.0486 18.3935L17.5373 16.792C17.7995 16.6973 17.9365 16.4102 17.8441 16.1467L16.9714 13.7371C16.9267 13.6098 16.8344 13.5092 16.7123 13.453C16.6438 13.4204 16.5693 13.4056 16.4948 13.4056V13.4026Z" fill="#0071FF"/>
</svg>
