<svg width="52" height="48" viewBox="0 0 52 48" fill="none" xmlns="http://www.w3.org/2000/svg">
<rect x="1" y="0.5" width="50" height="47" rx="23.5" fill="white"/>
<rect x="1" y="0.5" width="50" height="47" rx="23.5" stroke="#EDEDED"/>
<path d="M31.8765 12C29.6627 12 27.9326 14.2301 26.3656 17.0636C24.2125 13.3965 22.4127 12 20.2585 12C15.8657 12 12.5 19.6459 12.5 27.7402C12.5 32.8053 14.3313 36 17.4001 36C19.6083 36 21.1966 34.6081 24.0202 28.005C24.0202 28.005 25.1968 25.2242 26.0067 23.3101C26.2902 23.9225 26.5883 24.5816 26.9033 25.2904L28.2273 28.2699C30.8067 34.0423 32.2432 36 34.8474 36C37.8363 36 39.5 32.7617 39.5 27.5912C39.4977 19.1162 36.0567 12 31.8765 12ZM21.866 26.2173C19.5768 31.0176 18.7849 32.0935 17.5103 32.0935C16.1987 32.0935 15.4191 30.5526 15.4191 27.8064C15.4191 21.9302 17.6093 15.923 20.2202 15.923C21.6342 15.923 22.8154 17.0155 24.6254 20.481C22.9076 24.0053 21.866 26.2173 21.866 26.2173ZM34.907 32.0935C33.6032 32.0935 32.98 30.9424 30.5052 25.6139L28.9225 22.0821C28.4939 21.1507 28.0833 20.2944 27.6874 19.5089C29.1137 16.564 30.2904 15.0954 31.6909 15.0954C34.5988 15.0954 36.9251 20.8226 36.9251 27.856C36.924 30.5376 36.2681 32.0935 34.907 32.0935Z" fill="#0071FF"/>
</svg>
