<svg width="24" height="24" viewBox="0 0 24 24" fill="none" xmlns="http://www.w3.org/2000/svg">
<path d="M8.63688 11.1818C9.10123 11.1818 9.47766 11.5481 9.47766 12C9.47766 13.3556 10.6069 14.4545 12 14.4545C13.393 14.4545 14.5223 13.3556 14.5223 12C14.5223 11.5481 14.8988 11.1818 15.3631 11.1818C15.8275 11.1818 16.2039 11.5481 16.2039 12C16.2039 14.2593 14.3217 16.0909 12 16.0909C9.67825 16.0909 7.7961 14.2593 7.7961 12C7.7961 11.5481 8.17253 11.1818 8.63688 11.1818Z" fill="#FFC07A"/>
<path fill-rule="evenodd" clip-rule="evenodd" d="M16.2039 7.90909H18.0013C19.3246 7.90909 20.4229 8.90428 20.5172 10.1888L20.9891 16.6176C21.1629 18.9857 19.2356 21 16.7959 21H7.20411C4.76442 21 2.83708 18.9857 3.0109 16.6176L3.48279 10.1888C3.57707 8.90428 4.6754 7.90909 5.99872 7.90909H7.7961L7.7961 7.09091C7.7961 4.83156 9.67825 3 12 3C14.3217 3 16.2039 4.83156 16.2039 7.09091V7.90909ZM9.47766 7.90909H14.5223V7.09091C14.5223 5.7353 13.393 4.63636 12 4.63636C10.6069 4.63636 9.47766 5.7353 9.47766 7.09091L9.47766 7.90909ZM5.99872 9.54546C5.55761 9.54546 5.1915 9.87718 5.16007 10.3053L4.68819 16.7342C4.58389 18.1551 5.74029 19.3636 7.20411 19.3636H16.7959C18.2597 19.3636 19.4161 18.1551 19.3118 16.7342L18.8399 10.3053C18.8085 9.87718 18.4424 9.54546 18.0013 9.54546H5.99872Z" fill="#FFC07A"/>
</svg>
