<svg width="25" height="24" viewBox="0 0 25 24" fill="none" xmlns="http://www.w3.org/2000/svg">
<path d="M19.0241 8.53382C17.8649 8.53382 16.9199 7.76941 16.9199 6.827H17.763C17.763 7.29122 18.3408 7.68215 19.0241 7.68215C19.7108 7.68215 20.2887 7.29122 20.2887 6.827C20.2887 6.36626 19.7108 5.97533 19.0241 5.97533C17.8649 5.97533 16.9199 5.21093 16.9199 4.272C16.9199 3.32959 17.8649 2.56519 19.0241 2.56519C20.1867 2.56519 21.1283 3.32959 21.1283 4.272H20.2887C20.2887 3.80778 19.7108 3.41685 19.0241 3.41685C18.3408 3.41685 17.763 3.80778 17.763 4.272C17.763 4.73274 18.3408 5.12367 19.0241 5.12367C20.1867 5.12367 21.1283 5.88807 21.1283 6.827C21.1283 7.76941 20.1867 8.53382 19.0241 8.53382Z" fill="black"/>
<path d="M18.6055 1.71207H19.4485V2.98956H18.6055V1.71207Z" fill="black"/>
<path d="M18.6055 8.10852H19.4485V9.38602H18.6055V8.10852Z" fill="black"/>
<mask id="mask0_1_866" style="mask-type:luminance" maskUnits="userSpaceOnUse" x="19" y="18" width="3" height="6">
<path d="M19.3691 18.7592H21.9798V23.9983H19.3691V18.7592Z" fill="white"/>
</mask>
<g mask="url(#mask0_1_866)">
<path d="M20.6619 23.9915L20.084 23.3737C20.7605 22.721 21.131 21.8449 21.131 20.899V19.6215H21.974V20.899C21.974 22.0788 21.5083 23.1783 20.6619 23.9915Z" fill="black"/>
</g>
<path d="M21.1289 17.9116H21.9719V18.7668H21.1289V17.9116Z" fill="black"/>
<path d="M17.7627 23.0302H4.29118C3.12861 23.0302 2.18359 22.0739 2.18359 20.8976V12.3705C2.18359 11.1977 3.12861 10.2413 4.29118 10.2413H15.6585V11.093H4.29118C3.59432 11.093 3.02663 11.6654 3.02663 12.3705V20.8976C3.02663 21.6061 3.59432 22.1786 4.29118 22.1786H17.7627C18.4596 22.1786 19.0239 21.6061 19.0239 20.8976V12.7998H19.8669V20.8976C19.8669 22.0739 18.9219 23.0302 17.7627 23.0302Z" fill="black"/>
<mask id="mask1_1_866" style="mask-type:luminance" maskUnits="userSpaceOnUse" x="0" y="0" width="16" height="15">
<path d="M0.5 0.884796H15.8888V14.288H0.5V0.884796Z" fill="white"/>
</mask>
<g mask="url(#mask1_1_866)">
<path d="M2.24438 14.2887L0.786072 11.7303C0.602509 11.4091 0.507327 11.0461 0.503928 10.6761C0.500528 9.91174 0.905049 9.1997 1.55772 8.81924L13.2242 1.99545C13.8599 1.62547 14.6689 1.62198 15.291 1.978L14.8797 2.72146C14.5092 2.50855 14.0299 2.51204 13.6457 2.73542L1.97924 9.55921C1.58491 9.78609 1.34356 10.2154 1.34696 10.6727C1.34696 10.8926 1.40475 11.1124 1.51693 11.3044L2.97524 13.8629L2.24438 14.2887Z" fill="black"/>
</g>
<path d="M4.57812 4.62732L9.08224 1.99902L9.50375 2.7355L4.99964 5.36729L4.57812 4.62732Z" fill="black"/>
<path d="M3.28516 5.38555L3.98542 4.97717L4.40694 5.71714L3.70667 6.12552L3.28516 5.38555Z" fill="black"/>
<path d="M2.60742 19.1932H19.4477V20.0449H2.60742V19.1932Z" fill="black"/>
<path d="M3 16H9V17H3V16Z" fill="black"/>
<path d="M10 16H19V17H10V16Z" fill="black"/>
<mask id="mask2_1_866" style="mask-type:luminance" maskUnits="userSpaceOnUse" x="13" y="0" width="12" height="13">
<path d="M13.2793 0H24.5005V12.5027H13.2793V0Z" fill="white"/>
</mask>
<g mask="url(#mask2_1_866)">
<path d="M16.0784 11.945C15.6161 11.945 15.2388 11.5611 15.2388 11.0933V9.54011C14.1646 8.49647 13.5527 7.05492 13.5527 5.55055C13.5527 2.49294 16.0104 0.00775146 19.0257 0.00775146C22.0443 0.00775146 24.4986 2.49294 24.4986 5.55055C24.4986 8.60816 22.0443 11.0933 19.0257 11.0933C18.6857 11.0933 18.339 11.0584 17.9923 10.9921L16.4898 11.8368C16.3606 11.9101 16.2212 11.945 16.0784 11.945ZM19.0257 0.859416C16.4728 0.859416 14.3958 2.96414 14.3958 5.55055C14.3958 6.87691 14.9567 8.14743 15.9391 9.03749L16.0784 9.16663V11.0933L17.8631 10.0916L18.0161 10.1265C18.356 10.2033 18.6959 10.2417 19.0257 10.2417C21.5785 10.2417 23.6589 8.13696 23.6589 5.55055C23.6589 2.96414 21.5785 0.859416 19.0257 0.859416Z" fill="black"/>
</g>
</svg>
