<svg width="24" height="24" viewBox="0 0 24 24" fill="none" xmlns="http://www.w3.org/2000/svg">
<path fill-rule="evenodd" clip-rule="evenodd" d="M14.1802 2.09857C14.5499 2.29053 14.7407 2.71831 14.6401 3.12962L13.1385 9.27275H19.1111C19.4636 9.27275 19.7828 9.48578 19.9247 9.81578C20.0667 10.1458 20.0045 10.5304 19.7663 10.7961L9.98858 21.7052C9.70095 22.0261 9.23126 22.0934 8.86845 21.8657C8.50565 21.6381 8.35159 21.1793 8.50104 20.7717L10.7173 14.7273H4.8889C4.54399 14.7273 4.23022 14.5232 4.08393 14.2038C3.93764 13.8843 3.98523 13.5072 4.20604 13.2362L13.0949 2.32715C13.3603 2.00145 13.8106 1.90661 14.1802 2.09857ZM6.78671 12.9091H12C12.2915 12.9091 12.5645 13.0553 12.7306 13.3004C12.8967 13.5454 12.9347 13.8582 12.8323 14.1374L11.7747 17.0217L17.0904 11.0909H12C11.7263 11.0909 11.4678 10.962 11.2994 10.7413C11.1309 10.5206 11.0713 10.2329 11.1376 9.96135L11.973 6.54416L6.78671 12.9091Z" fill="#0071FF"/>
</svg>
