<svg width="25" height="24" viewBox="0 0 25 24" fill="none" xmlns="http://www.w3.org/2000/svg">
<path d="M9.53588 23.8788L5.91586 23.849C4.43685 23.8391 2.73502 23.9947 1.4756 23.0309C0.564946 22.3353 0.50036 21.5802 0.522965 20.5368L0.606926 9.13964C0.629532 6.20506 2.34751 6.01957 4.82114 5.95995L5.27969 5.92352C5.42824 5.91358 5.58324 5.92352 5.73179 5.92352H6.46484C6.66182 5.92021 6.73287 5.92683 6.88787 5.8076L14.228 0.839337C14.6607 0.547866 15.0935 0.196776 15.6166 0.113971C16.6694 0.0112944 17.2183 1.30635 17.6672 2.0814L19.5305 5.28758C19.6887 5.55587 19.847 5.82084 19.9826 6.10238C21.3486 6.09907 22.8018 6.52634 23.3507 7.97044C23.5413 8.47389 23.5639 8.9641 23.5606 9.50067L23.538 12.9255C23.5606 12.942 23.5768 12.952 23.6026 12.9586C23.9288 13.0712 24.284 13.5283 24.326 13.8959C24.3744 14.3166 24.3357 14.777 24.3324 15.2009C24.326 16.0323 24.4971 17.2114 23.5994 17.6453C23.5606 17.6652 23.5316 17.685 23.4961 17.7082L23.5348 20.2321C23.551 20.5368 23.6317 20.8316 23.6349 21.1363C23.6543 22.7262 22.5499 23.5973 21.1355 23.8622C20.4734 23.9881 19.8211 23.9583 19.1527 23.955L9.53588 23.8788ZM15.7329 0.90558C15.5843 0.945327 15.4552 1.00826 15.326 1.09106L7.10101 6.64226C6.91371 6.77806 6.68443 6.90061 6.53265 7.07947L8.1699 7.09603C8.37657 6.77475 8.72211 6.58264 9.02889 6.3806L12.2162 4.25419L13.7598 3.21416C13.9729 3.07837 14.2022 2.90282 14.4379 2.81339C15.326 2.4888 15.5649 3.45264 15.7006 3.48245C15.8943 3.52551 16.0945 3.38971 16.2818 3.36984C16.8341 3.31022 17.1279 4.20119 17.3217 4.60196L18.397 6.54621C18.51 6.74163 18.6651 6.95361 18.7296 7.17221L19.7049 7.16559C19.65 7.10597 19.6403 7.01654 19.6015 6.94698L16.4788 1.65082C16.3206 1.40572 16.0816 0.922141 15.7619 0.90558H15.7329ZM14.6963 3.60831C14.4735 3.71099 14.2635 3.8766 14.0569 4.00909L9.65214 6.94036C9.56172 7.00329 9.51005 7.07947 9.40671 7.1159L12.3421 7.13909C12.4164 6.68863 12.6328 6.3541 12.9912 6.07588C13.1785 5.94671 13.3464 5.86059 13.566 5.81091L13.5983 5.80097C14.2958 5.63867 15.2872 6.19843 15.439 6.95029C15.4519 7.00991 15.4487 7.11259 15.4842 7.16227L17.861 7.15896C17.8028 7.10928 17.7964 7.06622 17.7609 6.99998L17.622 6.77144C17.2765 6.20174 16.4239 4.88019 16.3077 4.22106C15.1225 4.60196 14.9191 3.55532 14.6963 3.60831ZM13.7985 6.57271C13.5402 6.63895 13.1947 6.82774 13.1333 7.12915C13.4239 7.18546 13.763 7.15234 14.0601 7.15234L14.6898 7.1424C14.4347 6.788 14.3088 6.55283 13.7985 6.57271ZM5.78023 6.74163L3.96215 6.82112C2.76731 6.8973 1.84051 6.92049 1.42393 8.29835C1.35612 8.52689 1.38195 8.8283 1.37872 9.06677L1.29476 21.1562C1.38195 23.1799 4.34966 23.0441 5.69304 23.0541L19.524 23.1601C20.6091 23.17 22.453 23.0243 22.7888 21.7491C22.8986 21.3351 22.8179 20.9542 22.7856 20.5401L22.7113 17.8076L22.0203 17.801L19.1979 17.7811C16.4078 17.7546 15.9944 13.5647 18.7135 12.8824C18.9944 12.8128 19.2689 12.8162 19.5563 12.8195L22.7662 12.8493L22.7921 9.4013C22.7985 7.97376 22.0719 7.0066 20.6091 6.96023C20.5477 7.21527 21.7167 7.39413 20.974 7.99694C20.819 8.04 20.6317 8.01681 20.4702 8.01681L3.41317 7.88102C2.89003 7.86445 2.72856 7.04966 3.57463 7.06622L5.32813 7.07947C5.73825 7.07284 5.55741 6.99998 5.79961 6.7615L5.78023 6.74163ZM19.2689 13.6243C17.2022 13.7502 16.9632 16.9266 19.2948 16.9762L21.9751 16.9961L22.5919 17.0027C23.6801 17.0094 23.551 16.7311 23.5574 15.7077L23.5671 14.3099C23.5671 13.6144 23.199 13.6541 22.6435 13.6508L19.2689 13.6243Z" fill="#020202"/>
</svg>
