<svg width="24" height="24" viewBox="0 0 24 24" fill="none" xmlns="http://www.w3.org/2000/svg">
<path d="M21.9974 15.5542C21.9544 13.6985 21.3879 11.2216 20.4816 8.92832C20.0675 7.8774 19.6182 6.97494 19.1845 6.32251C18.6063 5.4474 18.0867 5.0411 17.5398 5.0411C17.2312 5.0411 16.9538 5.02937 16.6881 5.01765C16.0162 4.99031 15.434 4.96687 14.9301 5.17393C14.4105 5.3888 14.1097 5.79119 13.926 6.19359H10.074C9.89035 5.79119 9.58953 5.3888 9.06993 5.17393C8.56205 4.96687 7.98385 4.99031 7.31189 5.01765C7.04232 5.02937 6.76494 5.0411 6.46021 5.0411C5.91326 5.0411 5.39366 5.4474 4.81546 6.32251C4.38181 6.97885 3.93644 7.88131 3.51842 8.93223C2.61205 11.2216 2.04557 13.6985 2.0026 15.5581C1.92837 18.8163 3.46372 19.3711 4.38572 19.4141H4.46776C5.38976 19.4141 6.40161 18.7069 7.5541 17.2614C8.09714 16.5817 8.5347 15.9019 8.77301 15.519H15.227C15.4614 15.9019 15.9029 16.5778 16.4459 17.2614C17.6375 18.7499 18.6727 19.457 19.6143 19.4141C20.5363 19.3711 22.0716 18.8124 21.9974 15.5542ZM13.4221 7.44375C13.0353 8.06493 12.4727 8.29933 12 8.29933C11.5273 8.29933 10.9647 8.06102 10.5779 7.44375H13.4221ZM20.6925 16.6872C20.4816 18.1209 19.8096 18.1522 19.5596 18.1639C19.3838 18.1717 18.7001 18.0741 17.4343 16.4918C16.6881 15.5581 16.1334 14.5931 16.1255 14.5853C16.0122 14.39 15.8091 14.2689 15.5825 14.2689H8.4175C8.19481 14.2689 7.98775 14.39 7.87446 14.5814C7.87055 14.5892 7.31579 15.5542 6.56569 16.4879C5.2999 18.0701 4.61622 18.1678 4.44041 18.16C4.18648 18.1483 3.51842 18.117 3.30745 16.6832C3.09258 15.2143 3.48716 12.7687 4.33884 10.3035C4.7178 9.21352 5.15926 8.20167 5.5851 7.45157C6.11642 6.51785 6.42505 6.31861 6.48756 6.28735C6.80791 6.28735 7.10092 6.27563 7.35877 6.26391C8.59721 6.21312 8.8199 6.20531 9.07384 7.09215C9.49967 8.58844 10.6483 9.5495 12 9.5495C13.3517 9.5495 14.5003 8.58453 14.9262 7.09215C15.1801 6.20531 15.4028 6.21312 16.6412 6.26391C16.8991 6.27563 17.1921 6.28735 17.5124 6.28735C17.575 6.31861 17.8875 6.51785 18.4149 7.45157C18.8407 8.20167 19.2822 9.21352 19.6612 10.3035C20.5128 12.7687 20.9074 15.2143 20.6925 16.6872ZM9.41372 11.1942C9.41372 11.538 9.13244 11.8193 8.78864 11.8193H7.99948V12.6085C7.99948 12.9523 7.71819 13.2336 7.37439 13.2336C7.0306 13.2336 6.74931 12.9523 6.74931 12.6085V11.8193H5.96015C5.61635 11.8193 5.33506 11.538 5.33506 11.1942C5.33506 10.8505 5.61635 10.5692 5.96015 10.5692H6.74931V9.78C6.74931 9.4362 7.0306 9.15492 7.37439 9.15492C7.71819 9.15492 7.99948 9.4362 7.99948 9.78V10.5692H8.78864C9.13634 10.5692 9.41372 10.8465 9.41372 11.1942ZM17.2507 9.77609V9.93236C17.2507 10.2762 16.9694 10.5574 16.6256 10.5574C16.2818 10.5574 16.0005 10.2762 16.0005 9.93236V9.77609C16.0005 9.4323 16.2818 9.15101 16.6256 9.15101C16.9694 9.15101 17.2507 9.4323 17.2507 9.77609ZM17.2507 12.4561V12.6085C17.2507 12.9523 16.9694 13.2336 16.6256 13.2336C16.2818 13.2336 16.0005 12.9523 16.0005 12.6085V12.4561C16.0005 12.1123 16.2818 11.831 16.6256 11.831C16.9694 11.831 17.2507 12.1084 17.2507 12.4561ZM18.6649 11.1942C18.6649 11.538 18.3836 11.8193 18.0399 11.8193H17.8836C17.5398 11.8193 17.2585 11.538 17.2585 11.1942C17.2585 10.8505 17.5398 10.5692 17.8836 10.5692H18.0399C18.3876 10.5692 18.6649 10.8465 18.6649 11.1942ZM15.9888 11.1942C15.9888 11.538 15.7075 11.8193 15.3637 11.8193H15.2114C14.8676 11.8193 14.5863 11.538 14.5863 11.1942C14.5863 10.8505 14.8676 10.5692 15.2114 10.5692H15.3637C15.7075 10.5692 15.9888 10.8465 15.9888 11.1942Z" fill="#7A7FFF"/>
</svg>
