<svg width="25" height="24" viewBox="0 0 25 24" fill="none" xmlns="http://www.w3.org/2000/svg">
<path d="M22.5 20.07V12.18C22.5 6.57999 18 2 12.5 2C7 2 2.5 6.57999 2.5 12.18V20.07C2.5 21.33 3.24998 21.67 4.16998 20.83L5.16998 19.92C5.53998 19.58 6.14001 19.58 6.51001 19.92L8.51001 21.75C8.88001 22.09 9.47998 22.09 9.84998 21.75L11.85 19.92C12.22 19.58 12.82 19.58 13.19 19.92L15.19 21.75C15.56 22.09 16.16 22.09 16.53 21.75L18.53 19.92C18.9 19.58 19.5 19.58 19.87 19.92L20.87 20.83C21.75 21.67 22.5 21.33 22.5 20.07Z" stroke="#161616" stroke-width="1.5" stroke-linecap="round" stroke-linejoin="round"/>
<path d="M8.5 14C10.87 15.78 14.13 15.78 16.5 14" stroke="#161616" stroke-width="1.5" stroke-linecap="round" stroke-linejoin="round"/>
<path d="M12.5 11C13.6046 11 14.5 10.1046 14.5 9C14.5 7.89543 13.6046 7 12.5 7C11.3954 7 10.5 7.89543 10.5 9C10.5 10.1046 11.3954 11 12.5 11Z" stroke="#161616" stroke-width="1.5" stroke-linecap="round" stroke-linejoin="round"/>
</svg>
